{"title":"Ravenous 1999 DVDRip Xvid AC3 LKRG","uid":10698751,"size":1151196944,"categoryP":"video","categoryS":"movies","magnet":"?xt=urn:btih:e19627ce08babd0fad3ce43c9f61c6799451700e&amp;dn=Ravenous+1999+DVDRip+Xvid+AC3+LKRG&amp;tr=udp%3A%2F%2Ftracker.openbittorrent.com%3A80&amp;tr=udp%3A%2F%2Fopen.demonii.com%3A1337&amp;tr=udp%3A%2F%2Ftracker.coppersurfer.tk%3A6969&amp;tr=udp%3A%2F%2Fexodus.desync.com%3A6969","seeders":1,"leechers":0,"uploader":".BONE.","files":2,"time":1407203372,"description":"PLOT\n\nCaptain John Boyd's promotion stations him at a fort where a rescued\nman tells a disturbing tale of cannibalism.\n\n\nRuntime ..........: 1h 40mn\nFile Size ........: 1.07 GB\nResolution .......: 704 x 272 &lt;a href=&quot;\nhttp://www.imdb.com/title/tt0129332/&quot; rel=&quot;nofollow&quot; target=&quot;_NEW&quot;&gt;\nhttp://www.imdb.com/title/tt0129332/&lt;/a&gt;\nGenre ............: Horror,Thriller\nLanguage .........: English\nSubtitles ........: None\nComplete name : Ravenous 1999 DVDRip Xvid AC3 LKRGRavenous_LKRG.avi\nFormat : AVI\nFormat/Info : Audio Video Interleave\nFile size : 1.07 GiB\nDuration : 1h 40mn\nOverall bit rate : 1 524 Kbps\nWriting application : VirtualDubMod 1.5.10.2 (build 2540/release)\nWriting library : VirtualDubMod build 2540/release\nVideo\nID : 0\nFormat : MPEG-4 Visual\nFormat profile : Advanced Simple@L5\nFormat settings, BVOP : 2\nFormat settings, QPel : No\nFormat settings, GMC : No warppoints\nFormat settings, Matrix : Default (H.263)\nMuxing mode : Packed bitstream\nCodec ID : XVID\nCodec ID/Hint : XviD\nDuration : 1h 40mn\nBit rate : 1 066 Kbps\nWidth : 704 pixels\nHeight : 272 pixels\nDisplay aspect ratio : 2.35:1\nFrame rate : 23.976 fps\nColor space : YUV\nChroma subsampling : 4:2:0\nBit depth : 8 bits\nScan type : Progressive\nCompression mode : Lossy\nBits/(Pixel*Frame) : 0.232\nStream size : 768 MiB (70%)\nWriting library : XviD 1.2.1 (UTC 2008-12-04)\nAudio\nID : 1\nFormat : AC-3\nFormat/Info : Audio Coding 3\nMode extension : CM (complete main)\nFormat settings, Endianness : Big\nCodec ID : 2000\nDuration : 1h 40mn\nBit rate mode : Constant\nBit rate : 448 Kbps\nChannel(s) : 6 channels\nChannel positions : Front: L C R, Side: L R, LFE\nSampling rate : 48.0 KHz\nBit depth : 16 bits\nCompression mode : Lossy\nStream size : 323 MiB (29%)\nAlignment : Split accross interleaves\nInterleave, duration : 42 ms (1.00 video frame)\nInterleave, preload duration : 500 ms","torrent":{"xt":"urn:btih:e19627ce08babd0fad3ce43c9f61c6799451700e","amp;dn":"Ravenous+1999+DVDRip+Xvid+AC3+LKRG","amp;tr":["udp%3A%2F%2Ftracker.openbittorrent.com%3A80","udp%3A%2F%2Fopen.demonii.com%3A1337","udp%3A%2F%2Ftracker.coppersurfer.tk%3A6969","udp%3A%2F%2Fexodus.desync.com%3A6969"],"infoHash":"e19627ce08babd0fad3ce43c9f61c6799451700e","infoHashBuffer":{"type":"Buffer","data":[225,150,39,206,8,186,189,15,173,60,228,60,159,97,198,121,148,81,112,14]},"announce":[],"urlList":[]}}